<?xml version="1.0" encoding="UTF-8"?>
<svg xmlns="http://www.w3.org/2000/svg" xmlns:xlink="http://www.w3.org/1999/xlink" viewBox="0 0 64 64" version="1.1" width="512px" height="512px">
<g id="surface1">
<path style=" fill:#F9E3AE;" d="M 32 5.089844 C 14.910156 5.089844 1 16.210938 1 29.878906 C 1 38.480469 6.378906 46.269531 15.441406 50.878906 C 15.21875 54.261719 14.222656 57.550781 12.53125 60.488281 C 12.367188 60.792969 12.371094 61.15625 12.542969 61.453125 C 12.710938 61.75 13.019531 61.941406 13.359375 61.960938 L 13.570313 61.960938 C 20.898438 60.328125 24.339844 56.148438 25.570313 54.199219 C 27.6875 54.558594 29.832031 54.738281 31.980469 54.738281 C 49.070313 54.738281 62.980469 43.621094 62.980469 29.949219 C 62.980469 16.28125 49.089844 5.089844 32 5.089844 Z "/>
<path style=" fill:#F6D397;" d="M 1.640625 34.949219 C 3.308594 41.480469 8.199219 47.191406 15.441406 50.839844 C 15.214844 54.222656 14.222656 57.511719 12.53125 60.449219 C 12.367188 60.75 12.371094 61.113281 12.542969 61.414063 C 12.710938 61.710938 13.019531 61.902344 13.359375 61.921875 L 13.570313 61.921875 C 20.898438 60.289063 24.339844 56.109375 25.570313 54.160156 C 27.6875 54.515625 29.832031 54.699219 31.980469 54.699219 C 46.871094 54.699219 59.339844 46.261719 62.308594 35.050781 C 62.621094 33.851563 62.355469 32.574219 61.597656 31.597656 C 60.839844 30.621094 59.667969 30.046875 58.429688 30.050781 L 5.539063 30.050781 C 4.320313 30.050781 3.167969 30.605469 2.40625 31.558594 C 1.648438 32.511719 1.367188 33.761719 1.640625 34.949219 Z "/>
<path style=" fill:#85CBF8;" d="M 56 30 C 56 19.507813 45.253906 11 32 11 C 18.746094 11 8 19.507813 8 30 C 8 40.492188 18.746094 49 32 49 C 45.253906 49 56 40.492188 56 30 Z "/>
<path style=" fill:#8D6C9F;" d="M 32 4.171875 C 14.351563 4.171875 0 15.648438 0 29.761719 C 0 38.628906 5.558594 46.679688 14.910156 51.398438 C 14.679688 54.890625 13.65625 58.285156 11.910156 61.320313 C 11.726563 61.628906 11.722656 62.011719 11.902344 62.324219 C 12.078125 62.636719 12.410156 62.828125 12.769531 62.828125 L 12.988281 62.828125 C 20.558594 61.148438 24.109375 56.828125 25.390625 54.828125 C 27.578125 55.195313 29.792969 55.378906 32.011719 55.378906 C 49.660156 55.378906 64.011719 43.898438 64.011719 29.789063 C 64.011719 15.679688 49.648438 4.171875 32 4.171875 Z M 32 53.339844 C 29.671875 53.339844 27.347656 53.125 25.058594 52.699219 C 24.636719 52.621094 24.207031 52.820313 24 53.199219 C 23.328125 54.429688 20.800781 58.261719 14.71875 60.25 C 16.046875 57.277344 16.804688 54.082031 16.949219 50.828125 C 16.96875 50.425781 16.742188 50.054688 16.378906 49.878906 C 7.378906 45.558594 2 38 2 29.761719 C 2 16.761719 15.460938 6.171875 32 6.171875 C 48.539063 6.171875 62 16.75 62 29.761719 C 62 42.769531 48.539063 53.339844 32 53.339844 Z "/>
<path style=" fill:#8D6C9F;" d="M 31.710938 45.691406 C 31.160156 45.738281 30.753906 46.222656 30.800781 46.769531 L 30.96875 48.769531 C 31.015625 49.285156 31.449219 49.683594 31.96875 49.679688 L 32.058594 49.679688 C 32.332031 49.664063 32.585938 49.539063 32.761719 49.335938 C 32.9375 49.128906 33.023438 48.859375 33 48.589844 L 32.828125 46.589844 C 32.804688 46.320313 32.671875 46.074219 32.460938 45.902344 C 32.25 45.734375 31.980469 45.65625 31.710938 45.691406 Z "/>
<path style=" fill:#8D6C9F;" d="M 12.199219 37 L 10.558594 38.148438 C 10.105469 38.46875 9.996094 39.09375 10.316406 39.546875 C 10.632813 39.996094 11.257813 40.109375 11.710938 39.789063 L 13.351563 38.640625 C 13.804688 38.324219 13.914063 37.699219 13.59375 37.246094 C 13.277344 36.792969 12.652344 36.683594 12.199219 37 Z "/>
<path style=" fill:#8D6C9F;" d="M 15.710938 41.199219 L 14.421875 42.730469 C 14.144531 42.996094 14.046875 43.398438 14.167969 43.761719 C 14.285156 44.125 14.605469 44.386719 14.984375 44.4375 C 15.363281 44.488281 15.738281 44.320313 15.949219 44 L 17.238281 42.46875 C 17.597656 42.046875 17.542969 41.417969 17.121094 41.058594 C 16.699219 40.703125 16.066406 40.757813 15.710938 41.179688 Z "/>
<path style=" fill:#8D6C9F;" d="M 21.519531 43.878906 C 21.019531 43.644531 20.425781 43.859375 20.191406 44.359375 L 19.339844 46.171875 C 19.179688 46.496094 19.207031 46.878906 19.414063 47.179688 C 19.617188 47.476563 19.96875 47.640625 20.328125 47.609375 C 20.6875 47.574219 21.003906 47.351563 21.148438 47.019531 L 22 45.210938 C 22.234375 44.710938 22.019531 44.113281 21.519531 43.878906 Z "/>
<path style=" fill:#8D6C9F;" d="M 26.488281 45.460938 C 25.945313 45.363281 25.425781 45.726563 25.328125 46.269531 L 24.980469 48.269531 C 24.882813 48.8125 25.246094 49.332031 25.789063 49.429688 L 25.96875 49.429688 C 26.460938 49.4375 26.886719 49.085938 26.96875 48.601563 L 27.320313 46.601563 C 27.402344 46.054688 27.03125 45.546875 26.488281 45.460938 Z "/>
<path style=" fill:#8D6C9F;" d="M 43.558594 14.449219 C 44.0625 14.679688 44.65625 14.457031 44.886719 13.953125 C 45.113281 13.453125 44.894531 12.859375 44.390625 12.628906 C 40.496094 10.878906 36.269531 9.980469 32 10 C 18.238281 10 7 19 7 30 C 7 31.347656 7.167969 32.691406 7.5 34 C 7.613281 34.457031 8.03125 34.773438 8.5 34.761719 C 8.582031 34.769531 8.667969 34.769531 8.75 34.761719 C 9.285156 34.628906 9.613281 34.085938 9.480469 33.550781 C 9.171875 32.390625 9.011719 31.199219 9 30 C 9 20.070313 19.300781 12 32 12 C 35.984375 11.980469 39.925781 12.816406 43.558594 14.449219 Z "/>
<path style=" fill:#8D6C9F;" d="M 54.46875 21.289063 C 54.320313 20.929688 53.976563 20.6875 53.585938 20.671875 C 53.195313 20.65625 52.832031 20.867188 52.65625 21.214844 C 52.476563 21.5625 52.519531 21.984375 52.761719 22.289063 C 54.207031 24.601563 54.984375 27.273438 55 30 C 55 38.191406 47.941406 45.359375 37.828125 47.421875 C 37.277344 47.476563 36.875 47.96875 36.929688 48.519531 C 36.984375 49.074219 37.476563 49.476563 38.03125 49.421875 L 38.230469 49.421875 C 49.238281 47.128906 57 39.160156 57 30 C 56.976563 26.917969 56.101563 23.902344 54.46875 21.289063 Z "/>
<path style=" fill:#8D6C9F;" d="M 50.101563 18.941406 C 50.488281 19.332031 51.121094 19.335938 51.515625 18.945313 C 51.90625 18.554688 51.910156 17.921875 51.519531 17.53125 C 50.675781 16.683594 49.765625 15.902344 48.800781 15.199219 C 48.351563 14.875 47.726563 14.972656 47.398438 15.421875 C 47.074219 15.867188 47.171875 16.496094 47.621094 16.820313 C 48.5 17.460938 49.332031 18.167969 50.101563 18.941406 Z "/>
<path style=" fill:#FAEFDE;" d="M 35 24 L 31 24 C 30.449219 24 30 24.449219 30 25 C 29.972656 25.273438 30.066406 25.542969 30.261719 25.738281 C 30.457031 25.933594 30.726563 26.027344 31 26 L 31.808594 26 L 30.128906 38 L 28 38 C 27.449219 38 27 38.449219 27 39 C 26.972656 39.273438 27.066406 39.542969 27.261719 39.738281 C 27.457031 39.933594 27.726563 40.027344 28 40 L 34 40 C 34.550781 40 35 39.550781 35 39 C 35 38.449219 34.550781 38 34 38 L 32.148438 38 L 33.859375 26 L 35 26 C 35.550781 26 36 25.550781 36 25 C 36 24.449219 35.550781 24 35 24 Z "/>
<path style=" fill:#FAEFDE;" d="M 36 20 C 36 21.105469 35.105469 22 34 22 C 32.894531 22 32 21.105469 32 20 C 32 18.894531 32.894531 18 34 18 C 35.105469 18 36 18.894531 36 20 Z "/>
</g>
</svg>
